<svg t="1608442547673" class="icon" viewBox="0 0 1024 1024" version="1.1" xmlns="http://www.w3.org/2000/svg" p-id="3140" width="200" height="200"><path d="M750.827 666.16c-55.913 0-100.643 44.73-100.643 100.642s44.73 100.643 100.643 100.643 100.643-44.73 100.643-100.643-46.328-100.643-100.643-100.643z m0 148.567c-27.158 0-49.523-22.365-49.523-49.523 0-27.157 22.365-49.522 49.523-49.522 27.157 0 49.522 22.365 49.522 49.522-1.597 27.158-23.962 49.523-49.522 49.523z m265.185-100.643c-3.195-19.17-15.975-33.547-33.547-33.547h-1.598c-31.95 0-57.51-25.56-57.51-57.51 0-7.988 3.195-19.17 4.793-20.768 7.987-17.573 1.597-38.34-15.975-51.12l-65.498-36.743c-4.792-1.597-11.182-3.195-15.975-3.195-12.78 0-23.963 4.793-31.95 12.78s-30.353 25.56-46.328 25.56-36.742-17.572-46.327-27.157c-7.988-7.988-20.768-12.78-31.95-12.78-6.39 0-11.183 1.597-15.975 3.195h-1.598L589.48 549.54l-1.598 1.598c-15.975 11.182-22.365 31.95-14.377 49.522 0 1.598 4.792 12.78 4.792 22.366 0 31.95-25.56 57.51-57.51 57.51h-3.195c-15.975 0-28.755 12.78-31.95 33.547 0 3.195-6.39 30.353-6.39 52.718s4.793 49.522 6.39 52.718c3.195 19.17 15.975 33.547 33.548 33.547h1.597c31.95 0 57.51 25.56 57.51 57.51 0 7.988-3.195 19.17-4.792 20.768-7.988 17.572-1.598 38.34 15.975 51.12l65.498 36.742c4.792 1.598 11.182 3.195 17.572 3.195 12.78 0 23.963-4.792 31.95-14.377 7.988-7.988 30.353-27.158 46.328-27.158s38.34 19.17 46.327 28.755c7.988 7.988 20.768 14.378 31.95 14.378 6.39 0 11.183-1.598 17.573-4.793l65.498-36.742 1.597-1.598c15.975-11.182 22.365-31.95 14.378-49.522 0-1.598-4.793-12.78-4.793-22.365 0-31.95 25.56-57.51 57.51-57.51h3.195c15.975 0 28.755-12.78 31.95-33.548 0 0 6.39-28.755 6.39-52.718 0-20.767-4.792-47.925-6.39-51.12z m-49.522 87.863c-54.315 6.39-94.253 52.718-94.253 108.63 0 12.78 3.195 25.56 6.39 33.548l-47.925 27.157c-4.792-4.792-11.182-11.182-19.17-17.572-20.768-15.975-41.535-23.963-60.705-23.963s-39.938 7.988-60.705 22.365c-7.988 6.39-14.378 12.78-19.17 15.975l-46.328-25.56c3.195-7.987 6.39-20.767 6.39-33.547 0-54.315-41.535-100.643-94.253-108.63-1.597-9.586-3.195-23.963-3.195-35.146 0-11.182 1.598-25.56 3.195-35.145 54.315-6.39 94.253-52.717 94.253-108.63 0-12.78-3.195-23.963-6.39-33.548l49.523-27.157c4.792 4.792 11.182 9.585 19.17 15.975 20.767 14.377 39.937 22.365 59.107 22.365s38.34-7.988 59.108-22.365c7.988-6.39 14.378-11.183 19.17-15.975l47.925 25.56c-3.195 7.987-6.39 20.767-6.39 33.548 0 54.315 41.535 100.642 94.253 108.63 1.597 9.585 3.195 23.962 3.195 35.145 0 14.377-1.598 28.755-3.195 38.34zM67.095 948.917v-57.51c0-193.298 150.166-353.048 340.268-372.218 11.183-1.598 23.963-1.598 35.146-1.598h4.792c41.535-3.195 105.435-12.78 138.983-43.132l15.975-12.78c63.9-49.523 100.643-124.606 100.643-204.48C704.499 116.617 587.882 0 444.106 0s-261.99 116.618-261.99 258.796c0 79.875 36.742 153.36 100.642 204.48l15.975 12.78-19.17 7.988C110.228 551.139 0 710.889 0 891.407v91.058c0 19.17 14.378 33.547 33.548 33.547h492.03c-15.974-20.767-30.352-43.132-39.937-67.095H67.095z m182.116-690.121c0-105.436 86.265-193.298 193.298-193.298 107.032 0 193.298 86.265 193.298 193.298 0 105.435-86.266 193.298-193.298 193.298-105.436 0-193.298-86.266-193.298-193.298z" p-id="3141"></path></svg>