<svg t="1608974146869" class="icon" viewBox="0 0 1024 1024" version="1.1" xmlns="http://www.w3.org/2000/svg" p-id="2520" width="200" height="200"><path d="M218.39878 92.602343c-47.599734 33.299814-88.899503 74.299585-122.799314 121.799319C27.499846 309.70113-6.099966 426.300479 0.999994 542.599829c1.499992 25.09986 23.099871 44.199753 48.199731 42.699762s44.199753-23.099871 42.699762-48.199731C79.799554 338.000972 211.098821 156.401986 404.197742 105.202272c147.999173-39.199781 303.698304 4.899973 408.897716 112.699371l-70.999603 38.199786 220.698767 136.399239 7.899956-259.298552-74.699583 40.199775C837.595321 107.202261 763.195737 57.30254 679.196206 28.102703 582.896744-5.197111 479.79732-8.99709 380.897872 17.202764c-58.599673 15.499913-113.299367 40.899772-162.499092 75.399579zM53.299702 890.797884l74.699583-40.099776c58.399674 66.19963 132.799258 116.099351 216.798789 145.199189 96.299462 33.299814 199.398886 37.099793 298.298334 10.899939 38.499785-10.199943 75.299579-24.599863 109.999385-43.099759 18.099899-9.599946 35.599801-20.399886 52.499707-32.19982 47.599734-33.299814 88.799504-74.199586 122.699315-121.599321 68.09962-95.199468 101.799431-211.698817 94.79947-327.898168-1.499992-25.09986-23.099871-44.199753-48.199731-42.699762s-44.199753 23.099871-42.699761 48.199731C943.994727 686.199027 812.595461 867.598014 619.796538 918.797728c-147.999173 39.199781-303.698304-4.899973-408.897716-112.699371l70.999603-38.199786L61.199658 631.499332l-7.899956 259.298552z" p-id="2521"></path></svg>