<svg t="1608442961402" class="icon" viewBox="0 0 1092 1024" version="1.1" xmlns="http://www.w3.org/2000/svg" p-id="4661" width="200" height="200"><path d="M198.826667 476.16a85.435733 85.435733 0 0 0-87.04 82.773333v136.533334h-44.373334a63.1808 63.1808 0 0 0-64.853333 62.293333v181.76a63.044267 63.044267 0 0 0 64.853333 61.44H244.053333a63.1808 63.1808 0 0 0 64.853334-62.293333v-180.906667a63.726933 63.726933 0 0 0-64.853334-62.293333h-58.026666V547.84h322.56v148.48h-51.2c-34.986667-0.853333-64 26.453333-65.706667 62.293333v181.76c0.853333 34.986667 29.866667 62.293333 65.706667 61.44h177.493333a63.1808 63.1808 0 0 0 64.853333-62.293333V757.76a63.726933 63.726933 0 0 0-64.853333-62.293333h-51.2V547.84h322.56v148.48h-58.026667a63.1808 63.1808 0 0 0-64.853333 62.293333v181.76a63.044267 63.044267 0 0 0 64.853333 61.44h177.493334a63.1808 63.1808 0 0 0 64.853333-62.293333V757.76a63.965867 63.965867 0 0 0-65.706667-62.293333h-44.373333v-136.533334c-0.853333-46.933333-40.106667-83.626667-87.04-82.773333H198.826667z m22.186666 290.986667c7.68 0 13.653333 5.973333 13.653334 12.8v137.386666c0 7.68-5.973333 12.8-13.653334 12.8H90.453333c-7.68 0-13.653333-5.973333-13.653333-12.8V779.946667c0-7.68 5.973333-12.8 13.653333-12.8h130.56z m390.826667 0c7.68 0 13.653333 5.973333 13.653333 12.8v137.386666c0 7.68-5.973333 12.8-13.653333 12.8h-131.413333c-7.68 0-13.653333-5.973333-13.653334-12.8V779.946667c0-7.68 5.973333-12.8 13.653334-12.8h131.413333z m403.626667 150.186666c0 7.68-5.973333 12.8-13.653334 12.8h-130.56c-7.68 0-13.653333-5.973333-13.653333-12.8V779.946667c0-7.68 5.973333-12.8 13.653333-12.8h130.56c7.68 0 13.653333 5.973333 13.653334 12.8v137.386666zM715.946667 233.813333a19.182933 19.182933 0 0 1 0-23.04L756.053333 162.133333l-4.266666-11.093333-5.12-11.093333c-3.413333-8.533333-6.826667-16.213333-10.24-21.333334a103.355733 103.355733 0 0 0-20.48-29.866666l-7.68-7.68-61.44 8.533333a21.2992 21.2992 0 0 1-21.333334-13.653333L605.866667 19.626667l-11.946667-1.706667c-30.72-6.826667-61.44-6.826667-92.16 0l-10.24 1.706667-21.333333 58.026666c-3.413333 7.68-11.093333 11.946667-19.626667 11.946667h-1.706667l-60.586666-10.24-8.533334 8.533333a218.965333 218.965333 0 0 0-37.546666 65.706667l-4.266667 10.24 40.106667 48.64c5.12 5.973333 5.12 15.36 0 22.186667L336.213333 281.6l4.266667 10.24c3.413333 13.653333 9.386667 26.453333 16.213333 37.546667 5.12 10.24 11.946667 19.626667 19.626667 28.16l7.68 7.68 63.146667-10.24c8.533333-0.853333 16.213333 3.413333 19.626666 11.946666l20.48 58.026667 11.946667 1.706667c30.72 6.826667 63.146667 6.826667 93.866667 0l10.24-2.56 21.333333-59.733334a19.5584 19.5584 0 0 1 19.626667-11.946666l61.44 10.24 8.533333-7.68A198.724267 198.724267 0 0 0 750.933333 290.986667l4.266667-10.24-39.253333-46.933334zM547.84 309.76A87.7568 87.7568 0 0 1 459.946667 221.866667a87.7568 87.7568 0 0 1 87.893333-87.893334A87.7568 87.7568 0 0 1 635.733333 221.866667c0 48.64-39.253333 87.04-87.893333 87.893333z" p-id="4662"></path></svg>